<svg viewBox="0 0 16 16" fill="none" xmlns="http://www.w3.org/2000/svg">
<path d="M5.5 15.5C4.11111 15.5 2.93056 15.0139 1.95833 14.0417C0.986111 13.0694 0.5 11.8889 0.5 10.5V5.5C0.5 4.11111 0.986111 2.93056 1.95833 1.95833C2.93056 0.986111 4.11111 0.5 5.5 0.5H10.5C11.8889 0.5 13.0694 0.986111 14.0417 1.95833C15.0139 2.93056 15.5 4.11111 15.5 5.5V10.5C15.5 11.8889 15.0139 13.0694 14.0417 14.0417C13.0694 15.0139 11.8889 15.5 10.5 15.5H5.5ZM7.16667 11.3333L12.1667 6.33333L11 5.16667L7.16667 9L5.33333 7.16667L4.16667 8.33333L7.16667 11.3333Z" fill="currentColor"/>
</svg>
