<svg viewBox="0 0 20 21" fill="none" xmlns="http://www.w3.org/2000/svg">
<g clip-path="url(#clip0_12_494)">
<path d="M9.16016 0.722656C9.70312 0.527344 10.2969 0.527344 10.8438 0.722656L18.3438 3.40234C19.3359 3.75781 20 4.69922 20 5.75781V15.2422C20 16.2969 19.3359 17.2422 18.3398 17.5977L10.8398 20.2773C10.2969 20.4727 9.70312 20.4727 9.15625 20.2773L1.65625 17.5977C0.664063 17.2422 0 16.3008 0 15.2422V5.75781C0 4.70313 0.664062 3.75781 1.66016 3.40234L9.16016 0.722656ZM10 3.07813L3.21484 5.5L10 7.92188L16.7852 5.5L10 3.07813ZM11.25 17.4766L17.5 15.2461V7.90234L11.25 10.1328V17.4766Z" fill="currentColor"/>
</g>
<defs>
<clipPath id="clip0_12_494">
<path d="M0 0.5H20V20.5H0V0.5Z" fill="white"/>
</clipPath>
</defs>
</svg>
