<svg viewBox="0 0 14 14" fill="none" xmlns="http://www.w3.org/2000/svg">
<path d="M6.96665 11C7.19998 11 7.3972 10.9194 7.55831 10.7583C7.71942 10.5972 7.79998 10.4 7.79998 10.1666C7.79998 9.93331 7.71942 9.73609 7.55831 9.57498C7.3972 9.41387 7.19998 9.33331 6.96665 9.33331C6.73331 9.33331 6.53609 9.41387 6.37498 9.57498C6.21387 9.73609 6.13331 9.93331 6.13331 10.1666C6.13331 10.4 6.21387 10.5972 6.37498 10.7583C6.53609 10.9194 6.73331 11 6.96665 11ZM6.36665 8.43331H7.59998C7.59998 8.06665 7.64165 7.77776 7.72498 7.56665C7.80831 7.35553 8.04442 7.06665 8.43331 6.69998C8.7222 6.41109 8.94998 6.13609 9.11665 5.87498C9.28331 5.61387 9.36665 5.29998 9.36665 4.93331C9.36665 4.31109 9.13887 3.83331 8.68331 3.49998C8.22776 3.16665 7.68887 2.99998 7.06665 2.99998C6.43331 2.99998 5.91942 3.16665 5.52498 3.49998C5.13054 3.83331 4.85554 4.23331 4.69998 4.69998L5.79998 5.13331C5.85554 4.93331 5.98054 4.71665 6.17498 4.48331C6.36942 4.24998 6.66665 4.13331 7.06665 4.13331C7.4222 4.13331 7.68887 4.23054 7.86665 4.42498C8.04442 4.61942 8.13331 4.83331 8.13331 5.06665C8.13331 5.28887 8.06665 5.4972 7.93331 5.69165C7.79998 5.88609 7.63331 6.06665 7.43331 6.23331C6.94442 6.66665 6.64442 6.99442 6.53331 7.21665C6.4222 7.43887 6.36665 7.84442 6.36665 8.43331ZM6.99998 13.6666C6.07776 13.6666 5.21109 13.4916 4.39998 13.1416C3.58887 12.7916 2.88331 12.3166 2.28331 11.7166C1.68331 11.1166 1.20831 10.4111 0.858313 9.59998C0.508313 8.78887 0.333313 7.9222 0.333313 6.99998C0.333313 6.07776 0.508313 5.21109 0.858313 4.39998C1.20831 3.58887 1.68331 2.88331 2.28331 2.28331C2.88331 1.68331 3.58887 1.20831 4.39998 0.858313C5.21109 0.508313 6.07776 0.333313 6.99998 0.333313C7.9222 0.333313 8.78887 0.508313 9.59998 0.858313C10.4111 1.20831 11.1166 1.68331 11.7166 2.28331C12.3166 2.88331 12.7916 3.58887 13.1416 4.39998C13.4916 5.21109 13.6666 6.07776 13.6666 6.99998C13.6666 7.9222 13.4916 8.78887 13.1416 9.59998C12.7916 10.4111 12.3166 11.1166 11.7166 11.7166C11.1166 12.3166 10.4111 12.7916 9.59998 13.1416C8.78887 13.4916 7.9222 13.6666 6.99998 13.6666ZM6.99998 12.3333C8.48887 12.3333 9.74998 11.8166 10.7833 10.7833C11.8166 9.74998 12.3333 8.48887 12.3333 6.99998C12.3333 5.51109 11.8166 4.24998 10.7833 3.21665C9.74998 2.18331 8.48887 1.66665 6.99998 1.66665C5.51109 1.66665 4.24998 2.18331 3.21665 3.21665C2.18331 4.24998 1.66665 5.51109 1.66665 6.99998C1.66665 8.48887 2.18331 9.74998 3.21665 10.7833C4.24998 11.8166 5.51109 12.3333 6.99998 12.3333Z" fill="currentColor"/>
</svg>
