<svg viewBox="0 0 20 21" fill="none" xmlns="http://www.w3.org/2000/svg">
<path d="M1.5625 2.375C1.04297 2.375 0.625 2.79297 0.625 3.3125V5.1875C0.625 5.70703 1.04297 6.125 1.5625 6.125H3.4375C3.95703 6.125 4.375 5.70703 4.375 5.1875V3.3125C4.375 2.79297 3.95703 2.375 3.4375 2.375H1.5625ZM7.5 3C6.80859 3 6.25 3.55859 6.25 4.25C6.25 4.94141 6.80859 5.5 7.5 5.5H18.75C19.4414 5.5 20 4.94141 20 4.25C20 3.55859 19.4414 3 18.75 3H7.5ZM7.5 9.25C6.80859 9.25 6.25 9.80859 6.25 10.5C6.25 11.1914 6.80859 11.75 7.5 11.75H18.75C19.4414 11.75 20 11.1914 20 10.5C20 9.80859 19.4414 9.25 18.75 9.25H7.5ZM7.5 15.5C6.80859 15.5 6.25 16.0586 6.25 16.75C6.25 17.4414 6.80859 18 7.5 18H18.75C19.4414 18 20 17.4414 20 16.75C20 16.0586 19.4414 15.5 18.75 15.5H7.5ZM0.625 9.5625V11.4375C0.625 11.957 1.04297 12.375 1.5625 12.375H3.4375C3.95703 12.375 4.375 11.957 4.375 11.4375V9.5625C4.375 9.04297 3.95703 8.625 3.4375 8.625H1.5625C1.04297 8.625 0.625 9.04297 0.625 9.5625ZM1.5625 14.875C1.04297 14.875 0.625 15.293 0.625 15.8125V17.6875C0.625 18.207 1.04297 18.625 1.5625 18.625H3.4375C3.95703 18.625 4.375 18.207 4.375 17.6875V15.8125C4.375 15.293 3.95703 14.875 3.4375 14.875H1.5625Z" fill="currentColor"/>
</svg>
