<svg viewBox="0 0 20 21" fill="none" xmlns="http://www.w3.org/2000/svg">
<path d="M20 10.5C20 10.5352 20 10.5703 20 10.6055C19.9844 12.0312 18.6875 13 17.2617 13H13.4375C12.4023 13 11.5625 13.8398 11.5625 14.875C11.5625 15.0078 11.5781 15.1367 11.6016 15.2617C11.6836 15.6602 11.8555 16.043 12.0234 16.4297C12.2617 16.9688 12.4961 17.5039 12.4961 18.0703C12.4961 19.3125 11.6523 20.4414 10.4102 20.4922C10.2734 20.4961 10.1367 20.5 9.99609 20.5C4.47656 20.5 0 16.0234 0 10.5C0 4.97656 4.47656 0.5 10 0.5C15.5234 0.5 20 4.97656 20 10.5ZM5 11.75C5 11.4185 4.8683 11.1005 4.63388 10.8661C4.39946 10.6317 4.08152 10.5 3.75 10.5C3.41848 10.5 3.10054 10.6317 2.86612 10.8661C2.6317 11.1005 2.5 11.4185 2.5 11.75C2.5 12.0815 2.6317 12.3995 2.86612 12.6339C3.10054 12.8683 3.41848 13 3.75 13C4.08152 13 4.39946 12.8683 4.63388 12.6339C4.8683 12.3995 5 12.0815 5 11.75ZM5 8C5.33152 8 5.64946 7.8683 5.88388 7.63388C6.1183 7.39946 6.25 7.08152 6.25 6.75C6.25 6.41848 6.1183 6.10054 5.88388 5.86612C5.64946 5.6317 5.33152 5.5 5 5.5C4.66848 5.5 4.35054 5.6317 4.11612 5.86612C3.8817 6.10054 3.75 6.41848 3.75 6.75C3.75 7.08152 3.8817 7.39946 4.11612 7.63388C4.35054 7.8683 4.66848 8 5 8ZM11.25 4.25C11.25 3.91848 11.1183 3.60054 10.8839 3.36612C10.6495 3.1317 10.3315 3 10 3C9.66848 3 9.35054 3.1317 9.11612 3.36612C8.8817 3.60054 8.75 3.91848 8.75 4.25C8.75 4.58152 8.8817 4.89946 9.11612 5.13388C9.35054 5.3683 9.66848 5.5 10 5.5C10.3315 5.5 10.6495 5.3683 10.8839 5.13388C11.1183 4.89946 11.25 4.58152 11.25 4.25ZM15 8C15.3315 8 15.6495 7.8683 15.8839 7.63388C16.1183 7.39946 16.25 7.08152 16.25 6.75C16.25 6.41848 16.1183 6.10054 15.8839 5.86612C15.6495 5.6317 15.3315 5.5 15 5.5C14.6685 5.5 14.3505 5.6317 14.1161 5.86612C13.8817 6.10054 13.75 6.41848 13.75 6.75C13.75 7.08152 13.8817 7.39946 14.1161 7.63388C14.3505 7.8683 14.6685 8 15 8Z" fill="currentColor"/>
</svg>
